<svg width="587" height="504" viewBox="0 0 587 504" fill="none" xmlns="http://www.w3.org/2000/svg">
<path d="M286.741 301.223L209.987 260.674C208.539 257.777 207.616 257.964 202.746 249.088L199.85 240.399C195.505 237.503 196.878 228.747 194.057 225.917L192.609 214.332C189.755 211.486 194.057 182.472 194.057 199.85L195.505 186.816L202.746 165.093L209.987 154.956L215.78 148.063C219.29 141.922 225.917 133.233 234.606 130.337L244.744 124.544L259.225 117.303L273.707 114.407L286.741 112.959C286.741 112.959 290.739 16.4514 286.741 16.4514H263.758C259.728 16.4514 256.289 19.3715 255.64 23.3528L247.776 71.506C237.905 74.3439 228.429 78.2346 219.504 83.1207L179.774 54.7421C176.492 52.3977 172.025 52.7761 169.171 55.614L137.198 87.5873C134.376 90.4087 133.981 94.8506 136.276 98.1162L164.236 138.118C159.259 147.125 155.294 156.658 152.407 166.579L104.443 174.566C100.478 175.224 97.5663 178.662 97.5663 182.676V227.918C97.5663 231.907 100.429 235.321 104.352 236.02L152.317 244.525C155.187 254.421 159.152 263.954 164.145 272.986L135.84 312.577C133.504 315.842 133.875 320.325 136.712 323.18L168.694 355.186C171.515 358.007 175.965 358.402 179.231 356.107L219.29 328.049C228.281 332.993 237.782 336.916 247.628 339.763L255.656 387.973C256.306 391.93 259.736 394.834 263.758 394.834H286.379L286.741 320.049C286.741 301.223 286.741 301.223 286.741 301.223ZM286.741 263.222C254.94 263.222 229.161 237.443 229.161 205.643C229.161 173.842 254.94 148.063 286.741 148.063C318.541 148.063 344.321 173.842 344.321 205.643C344.321 237.443 318.541 263.222 286.741 263.222Z" fill="black"/>
<path d="M379.425 208.539C379.425 261.326 336.632 304.119 283.845 304.119C231.057 304.119 188.264 261.326 188.264 208.539C188.264 155.751 231.057 112.959 283.845 112.959C336.632 112.959 379.425 155.751 379.425 208.539Z" fill="white"/>
<circle cx="288.189" cy="209.987" r="79.6503" fill="black"/>
<rect x="251.984" y="173.782" width="72.4093" height="72.4093" fill="white"/>
<rect x="269.363" y="191.161" width="34.7565" height="34.7565" fill="black"/>
<rect x="254.881" y="150.611" width="8.68912" height="17.3782" fill="white"/>
<rect x="254.881" y="251.984" width="8.68912" height="17.3782" fill="white"/>
<rect x="269.363" y="150.611" width="8.68912" height="17.3782" fill="white"/>
<rect x="269.363" y="251.984" width="8.68912" height="17.3782" fill="white"/>
<rect x="283.845" y="150.611" width="8.68912" height="17.3782" fill="white"/>
<rect x="283.845" y="251.984" width="8.68912" height="17.3782" fill="white"/>
<rect x="298.326" y="150.611" width="8.68912" height="17.3782" fill="white"/>
<rect x="298.326" y="251.984" width="8.68912" height="17.3782" fill="white"/>
<rect x="312.808" y="150.611" width="8.68912" height="17.3782" fill="white"/>
<rect x="312.808" y="251.984" width="8.68912" height="17.3782" fill="white"/>
<rect x="330.868" y="185.368" width="8.68912" height="17.3782" transform="rotate(-90 330.868 185.368)" fill="white"/>
<rect x="229.495" y="185.368" width="8.68912" height="17.3782" transform="rotate(-90 229.495 185.368)" fill="white"/>
<rect x="330.698" y="199.849" width="8.68912" height="17.3782" transform="rotate(-90 330.698 199.849)" fill="white"/>
<rect x="229.325" y="199.849" width="8.68912" height="17.3782" transform="rotate(-90 229.325 199.849)" fill="white"/>
<rect x="330.527" y="214.33" width="8.68912" height="17.3782" transform="rotate(-90 330.527 214.33)" fill="white"/>
<rect x="229.154" y="214.33" width="8.68912" height="17.3782" transform="rotate(-90 229.154 214.33)" fill="white"/>
<rect x="330.357" y="228.81" width="8.68912" height="17.3782" transform="rotate(-90 330.357 228.81)" fill="white"/>
<rect x="228.984" y="228.81" width="8.68912" height="17.3782" transform="rotate(-90 228.984 228.81)" fill="white"/>
<rect x="330.187" y="243.291" width="8.68912" height="17.3782" transform="rotate(-90 330.187 243.291)" fill="white"/>
<rect x="228.813" y="243.291" width="8.68912" height="17.3782" transform="rotate(-90 228.813 243.291)" fill="white"/>
<rect x="364.943" y="205.642" width="46.342" height="8.68912" fill="black"/>
<path d="M280.948 83.9948H327.29V92.6839H280.948V83.9948Z" fill="black"/>
<rect x="320.612" y="87.0568" width="27.5006" height="8.68912" transform="rotate(-48.1555 320.612 87.0568)" fill="black"/>
<path d="M338.876 66.6166H386.666V75.3057H340.324L338.876 66.6166Z" fill="black"/>
<circle cx="392.459" cy="69.513" r="11.5855" fill="black"/>
<path d="M333.083 162.197H379.425V170.886H333.083V162.197Z" fill="black"/>
<rect x="372.746" y="165.259" width="27.5006" height="8.68912" transform="rotate(-48.1555 372.746 165.259)" fill="black"/>
<path d="M391.01 144.819H438.801V153.508H392.459L391.01 144.819Z" fill="black"/>
<circle cx="444.593" cy="147.715" r="11.5855" fill="black"/>
<circle cx="419.974" cy="208.539" r="11.5855" fill="black"/>
<path d="M281.12 335.853L327.454 334.981L327.285 326.013L280.951 326.885L281.12 335.853Z" fill="black"/>
<rect width="27.9969" height="8.81511" transform="matrix(0.669381 0.742919 0.721408 -0.69251 320.717 331.946)" fill="black"/>
<path d="M339.375 352.699L387.157 351.8L386.988 342.832L340.654 343.704L339.375 352.699Z" fill="black"/>
<ellipse cx="11.5855" cy="11.9597" rx="11.5855" ry="11.9597" transform="matrix(0.999823 -0.0188165 -0.0188165 -0.999823 381.534 360.877)" fill="black"/>
<path d="M330.359 266.34L376.692 265.468L376.524 256.5L330.19 257.372L330.359 266.34Z" fill="black"/>
<rect width="27.9969" height="8.81511" transform="matrix(0.669381 0.742919 0.721408 -0.69251 369.956 262.433)" fill="black"/>
<path d="M388.613 283.186L436.395 282.287L436.226 273.319L389.893 274.191L388.613 283.186Z" fill="black"/>
<ellipse cx="11.5855" cy="11.9597" rx="11.5855" ry="11.9597" transform="matrix(0.999823 -0.0188165 -0.0188165 -0.999823 430.772 291.364)" fill="black"/>
<path d="M14.496 471.88V480.52C14.496 480.84 14.656 481 14.976 481H17.76C18.08 481 18.24 480.84 18.24 480.52L18.336 467.752L7.488 463.048C5.056 461.96 3.424 460.84 2.592 459.688C1.824 458.536 1.44 456.776 1.44 454.408V438.76C1.44 433.832 2.496 430.312 4.608 428.2C6.72 426.088 10.144 425.032 14.88 425.032H18.912C23.392 425.224 26.592 426.408 28.512 428.584C30.432 430.696 31.392 434.088 31.392 438.76V450.76L18.336 449.32V438.28C18.336 437.96 18.176 437.8 17.856 437.8H14.976C14.656 437.8 14.496 437.96 14.496 438.28V452.392L25.344 457.096C27.776 458.12 29.376 459.24 30.144 460.456C30.976 461.608 31.392 463.368 31.392 465.736V480.04C31.392 484.712 30.432 488.136 28.512 490.312C26.592 492.424 23.392 493.576 18.912 493.768H15.072C10.208 493.768 6.72 492.712 4.608 490.6C2.496 488.424 1.44 484.904 1.44 480.04V471.88H14.496ZM36.5565 493V438.568H34.7325L36.0765 425.8H49.6125V493H36.5565ZM55.3065 493V438.568H53.4825L54.8265 425.8H63.8505L73.3545 425.704L77.9625 461.992L82.6665 425.8H100.715V493H87.6585V452.872L82.5705 483.4H73.4505L68.3625 452.872V493H55.3065ZM139.69 479.656C139.69 484.52 138.602 488.04 136.426 490.216C134.314 492.328 130.794 493.384 125.866 493.384H120.682C115.754 493.384 112.202 492.328 110.026 490.216C107.914 488.04 106.858 484.52 106.858 479.656V438.568H105.034L106.378 425.8H119.914V480.136C119.914 480.456 120.074 480.616 120.394 480.616H126.154C126.474 480.616 126.634 480.456 126.634 480.136V425.8H139.69V479.656ZM152.411 493V438.568H143.483V425.8H174.299V438.568H165.467V493H152.411ZM179.994 493V438.568H178.17L179.514 425.8H206.97L206.202 438.568H193.05V452.968H204.858L204.09 465.736H193.05V480.232H206.97L206.202 493H179.994ZM242.667 465.16V480.04C242.667 484.904 241.579 488.424 239.403 490.6C237.291 492.712 233.771 493.768 228.843 493.768H224.619C219.691 493.768 216.139 492.712 213.963 490.6C211.851 488.424 210.795 484.904 210.795 480.04V438.76C210.795 433.832 211.851 430.312 213.963 428.2C216.139 426.088 219.691 425.032 224.619 425.032H228.843C233.771 425.032 237.291 426.088 239.403 428.2C241.579 430.312 242.667 433.832 242.667 438.76V454.6L229.611 453.16V438.28C229.611 437.96 229.451 437.8 229.131 437.8H224.331C224.011 437.8 223.851 437.96 223.851 438.28V480.52C223.851 480.84 224.011 481 224.331 481H229.131C229.451 481 229.611 480.84 229.611 480.52V465.16H242.667ZM248.338 493V438.568H246.514L247.858 425.8H261.394V454.984H266.674V425.8H279.73V493H266.674V467.752H261.394V493H248.338ZM300.795 493L308.763 438.568H306.747L308.091 425.8H330.459L340.347 493H327.387L325.947 483.4H315.195L313.755 493H300.795ZM317.019 470.632H324.123L320.571 446.632L317.019 470.632ZM375.136 465.16V480.04C375.136 484.904 374.048 488.424 371.872 490.6C369.76 492.712 366.24 493.768 361.312 493.768H357.088C352.16 493.768 348.608 492.712 346.432 490.6C344.32 488.424 343.264 484.904 343.264 480.04V438.76C343.264 433.832 344.32 430.312 346.432 428.2C348.608 426.088 352.16 425.032 357.088 425.032H361.312C366.24 425.032 369.76 426.088 371.872 428.2C374.048 430.312 375.136 433.832 375.136 438.76V454.6L362.08 453.16V438.28C362.08 437.96 361.92 437.8 361.6 437.8H356.8C356.48 437.8 356.32 437.96 356.32 438.28V480.52C356.32 480.84 356.48 481 356.8 481H361.6C361.92 481 362.08 480.84 362.08 480.52V465.16H375.136ZM378.045 493L386.013 438.568H383.997L385.341 425.8H407.709L417.597 493H404.637L403.197 483.4H392.445L391.005 493H378.045ZM394.269 470.632H401.373L397.821 446.632L394.269 470.632ZM454.679 479.272C454.679 484.136 453.591 487.656 451.415 489.832C449.303 491.944 445.783 493 440.855 493H422.807V438.568H420.983L422.327 425.8H440.855C445.783 425.8 449.303 426.856 451.415 428.968C453.591 431.08 454.679 434.6 454.679 439.528V479.272ZM441.143 480.232C441.463 480.232 441.623 480.072 441.623 479.752V439.048C441.623 438.728 441.463 438.568 441.143 438.568H435.863V480.232H441.143ZM459.369 493V438.568H457.545L458.889 425.8H486.345L485.577 438.568H472.425V452.968H484.233L483.465 465.736H472.425V480.232H486.345L485.577 493H459.369ZM491.994 493V438.568H490.17L491.514 425.8H500.538L510.042 425.704L514.65 461.992L519.354 425.8H537.402V493H524.346V452.872L519.258 483.4H510.138L505.05 452.872V493H491.994ZM552.496 493V467.176L541.264 425.8H554.224L559.024 448.552L563.728 425.8H576.688L565.456 467.176V493H552.496Z" fill="black"/>
</svg>
